<svg width="275" height="58" viewBox="0 0 275 58" fill="none" xmlns="http://www.w3.org/2000/svg">
<rect width="275" height="58" rx="10" fill="#778DA9"/>
<g filter="url(#filter0_dddddddd_28_13796)">
<path d="M90.7532 17.9062C90.6206 16.6657 90.0619 15.6998 89.0771 15.0085C88.1017 14.3172 86.8327 13.9716 85.2702 13.9716C84.1718 13.9716 83.2295 14.1373 82.4435 14.4688C81.6576 14.8002 81.0562 15.25 80.6396 15.8182C80.2229 16.3864 80.0098 17.035 80.0004 17.7642C80.0004 18.3703 80.1377 18.8958 80.4123 19.3409C80.6964 19.786 81.0799 20.1648 81.5629 20.4773C82.0458 20.7803 82.5808 21.036 83.168 21.2443C83.7551 21.4527 84.3469 21.6278 84.9435 21.7699L87.6708 22.4517C88.7693 22.7074 89.8252 23.053 90.8384 23.4886C91.8612 23.9242 92.775 24.4735 93.5799 25.1364C94.3943 25.7992 95.0382 26.5994 95.5117 27.5369C95.9852 28.4744 96.2219 29.5729 96.2219 30.8324C96.2219 32.5369 95.7863 34.0379 94.9151 35.3352C94.0439 36.6231 92.7844 37.6316 91.1367 38.3608C89.4985 39.0805 87.5146 39.4403 85.185 39.4403C82.9218 39.4403 80.9568 39.09 79.2901 38.3892C77.6329 37.6884 76.3356 36.6657 75.3981 35.321C74.4701 33.9763 73.9682 32.3381 73.8924 30.4062H79.0771C79.1528 31.4195 79.4653 32.2623 80.0146 32.9347C80.5638 33.607 81.2788 34.1089 82.1594 34.4403C83.0496 34.7718 84.0439 34.9375 85.1424 34.9375C86.2882 34.9375 87.292 34.767 88.1538 34.4261C89.025 34.0758 89.7068 33.5928 90.1992 32.9773C90.6916 32.3523 90.9426 31.6231 90.9521 30.7898C90.9426 30.0322 90.7201 29.4072 90.2844 28.9148C89.8488 28.4129 89.238 27.9962 88.4521 27.6648C87.6755 27.3239 86.7665 27.0208 85.7248 26.7557L82.4151 25.9034C80.0193 25.2879 78.1254 24.3551 76.7333 23.1051C75.3507 21.8456 74.6594 20.1742 74.6594 18.0909C74.6594 16.3769 75.1235 14.8759 76.0515 13.5881C76.989 12.3002 78.2627 11.3011 79.8725 10.5909C81.4824 9.87121 83.3053 9.51136 85.3413 9.51136C87.4057 9.51136 89.2144 9.87121 90.7674 10.5909C92.3299 11.3011 93.5562 12.2907 94.4464 13.5597C95.3365 14.8191 95.7958 16.268 95.8242 17.9062H90.7532ZM114.599 29.8239V17.1818H119.741V39H114.755V35.1222H114.528C114.036 36.3437 113.226 37.3428 112.099 38.1193C110.982 38.8958 109.604 39.2841 107.966 39.2841C106.536 39.2841 105.271 38.9669 104.173 38.3324C103.084 37.6884 102.232 36.7557 101.616 35.5341C101.001 34.303 100.693 32.8163 100.693 31.0739V17.1818H105.835V30.2784C105.835 31.661 106.214 32.7595 106.971 33.5739C107.729 34.3883 108.723 34.7955 109.954 34.7955C110.712 34.7955 111.446 34.6108 112.156 34.2415C112.866 33.8722 113.449 33.3229 113.903 32.5938C114.367 31.8551 114.599 30.9318 114.599 29.8239ZM130.171 26.2159V39H125.029V17.1818H129.944V20.8892H130.199C130.701 19.6676 131.501 18.697 132.6 17.9773C133.708 17.2576 135.076 16.8977 136.705 16.8977C138.211 16.8977 139.522 17.2197 140.64 17.8636C141.766 18.5076 142.638 19.4403 143.253 20.6619C143.878 21.8835 144.186 23.3655 144.176 25.108V39H139.034V25.9034C139.034 24.4451 138.656 23.304 137.898 22.4801C137.15 21.6562 136.113 21.2443 134.787 21.2443C133.888 21.2443 133.087 21.4432 132.387 21.8409C131.695 22.2292 131.151 22.7926 130.753 23.5312C130.365 24.2699 130.171 25.1648 130.171 26.2159ZM160.455 17.1818V21.1591H147.557V17.1818H160.455ZM150.782 39V15.1222C150.782 13.6544 151.085 12.4328 151.691 11.4574C152.306 10.482 153.13 9.75284 154.162 9.26989C155.194 8.78693 156.34 8.54545 157.6 8.54545C158.49 8.54545 159.281 8.61648 159.972 8.75852C160.663 8.90057 161.175 9.02841 161.506 9.14205L160.483 13.1193C160.266 13.053 159.991 12.9867 159.659 12.9205C159.328 12.8447 158.959 12.8068 158.551 12.8068C157.595 12.8068 156.918 13.0388 156.52 13.5028C156.132 13.9574 155.938 14.6108 155.938 15.4631V39H150.782ZM170.018 39.4403C168.636 39.4403 167.39 39.1941 166.282 38.7017C165.184 38.1998 164.313 37.4612 163.669 36.4858C163.034 35.5104 162.717 34.3078 162.717 32.8778C162.717 31.6468 162.944 30.6288 163.399 29.8239C163.853 29.0189 164.474 28.375 165.26 27.892C166.046 27.4091 166.931 27.0445 167.916 26.7983C168.91 26.5426 169.938 26.358 170.998 26.2443C172.277 26.1117 173.314 25.9934 174.109 25.8892C174.904 25.7756 175.482 25.6051 175.842 25.3778C176.211 25.1411 176.396 24.7765 176.396 24.2841V24.1989C176.396 23.1288 176.079 22.3002 175.444 21.7131C174.81 21.1259 173.896 20.8324 172.703 20.8324C171.443 20.8324 170.444 21.107 169.706 21.6562C168.976 22.2055 168.484 22.8542 168.228 23.6023L163.427 22.9205C163.806 21.5947 164.431 20.4867 165.302 19.5966C166.173 18.697 167.239 18.0246 168.498 17.5795C169.758 17.125 171.15 16.8977 172.674 16.8977C173.725 16.8977 174.772 17.0208 175.814 17.267C176.855 17.5133 177.807 17.9205 178.669 18.4886C179.53 19.0473 180.222 19.8097 180.743 20.7756C181.273 21.7415 181.538 22.9489 181.538 24.3977V39H176.595V36.0028H176.424C176.112 36.6089 175.672 37.1771 175.103 37.7074C174.545 38.2282 173.839 38.6496 172.987 38.9716C172.144 39.2841 171.154 39.4403 170.018 39.4403ZM171.353 35.6619C172.386 35.6619 173.28 35.4583 174.038 35.0511C174.796 34.6345 175.378 34.0852 175.785 33.4034C176.202 32.7216 176.41 31.9782 176.41 31.1733V28.6023C176.249 28.7348 175.975 28.858 175.586 28.9716C175.208 29.0852 174.781 29.1847 174.308 29.2699C173.834 29.3551 173.366 29.4309 172.902 29.4972C172.438 29.5634 172.035 29.6203 171.694 29.6676C170.927 29.7718 170.241 29.9422 169.635 30.179C169.029 30.4157 168.55 30.7472 168.2 31.1733C167.85 31.59 167.674 32.1297 167.674 32.7926C167.674 33.7396 168.02 34.4545 168.711 34.9375C169.403 35.4205 170.283 35.6619 171.353 35.6619ZM191.85 9.90909V39H186.708V9.90909H191.85ZM202.28 9.90909V39H197.138V9.90909H202.28Z" fill="#E0E1DD"/>
</g>
<defs>
<filter id="filter0_dddddddd_28_13796" x="69.8925" y="8.54541" width="136.388" height="38.895" filterUnits="userSpaceOnUse" color-interpolation-filters="sRGB">
<feFlood flood-opacity="0" result="BackgroundImageFix"/>
<feColorMatrix in="SourceAlpha" type="matrix" values="0 0 0 0 0 0 0 0 0 0 0 0 0 0 0 0 0 0 127 0" result="hardAlpha"/>
<feOffset dy="4"/>
<feGaussianBlur stdDeviation="2"/>
<feComposite in2="hardAlpha" operator="out"/>
<feColorMatrix type="matrix" values="0 0 0 0 0 0 0 0 0 0 0 0 0 0 0 0 0 0 0.25 0"/>
<feBlend mode="normal" in2="BackgroundImageFix" result="effect1_dropShadow_28_13796"/>
<feColorMatrix in="SourceAlpha" type="matrix" values="0 0 0 0 0 0 0 0 0 0 0 0 0 0 0 0 0 0 127 0" result="hardAlpha"/>
<feOffset dy="4"/>
<feGaussianBlur stdDeviation="2"/>
<feComposite in2="hardAlpha" operator="out"/>
<feColorMatrix type="matrix" values="0 0 0 0 0 0 0 0 0 0 0 0 0 0 0 0 0 0 0.25 0"/>
<feBlend mode="normal" in2="effect1_dropShadow_28_13796" result="effect2_dropShadow_28_13796"/>
<feColorMatrix in="SourceAlpha" type="matrix" values="0 0 0 0 0 0 0 0 0 0 0 0 0 0 0 0 0 0 127 0" result="hardAlpha"/>
<feOffset dy="4"/>
<feGaussianBlur stdDeviation="2"/>
<feComposite in2="hardAlpha" operator="out"/>
<feColorMatrix type="matrix" values="0 0 0 0 0 0 0 0 0 0 0 0 0 0 0 0 0 0 0.25 0"/>
<feBlend mode="normal" in2="effect2_dropShadow_28_13796" result="effect3_dropShadow_28_13796"/>
<feColorMatrix in="SourceAlpha" type="matrix" values="0 0 0 0 0 0 0 0 0 0 0 0 0 0 0 0 0 0 127 0" result="hardAlpha"/>
<feOffset dy="4"/>
<feGaussianBlur stdDeviation="2"/>
<feComposite in2="hardAlpha" operator="out"/>
<feColorMatrix type="matrix" values="0 0 0 0 0 0 0 0 0 0 0 0 0 0 0 0 0 0 0.25 0"/>
<feBlend mode="normal" in2="effect3_dropShadow_28_13796" result="effect4_dropShadow_28_13796"/>
<feColorMatrix in="SourceAlpha" type="matrix" values="0 0 0 0 0 0 0 0 0 0 0 0 0 0 0 0 0 0 127 0" result="hardAlpha"/>
<feOffset dy="4"/>
<feGaussianBlur stdDeviation="2"/>
<feComposite in2="hardAlpha" operator="out"/>
<feColorMatrix type="matrix" values="0 0 0 0 0 0 0 0 0 0 0 0 0 0 0 0 0 0 0.25 0"/>
<feBlend mode="normal" in2="effect4_dropShadow_28_13796" result="effect5_dropShadow_28_13796"/>
<feColorMatrix in="SourceAlpha" type="matrix" values="0 0 0 0 0 0 0 0 0 0 0 0 0 0 0 0 0 0 127 0" result="hardAlpha"/>
<feOffset dy="4"/>
<feGaussianBlur stdDeviation="2"/>
<feComposite in2="hardAlpha" operator="out"/>
<feColorMatrix type="matrix" values="0 0 0 0 0 0 0 0 0 0 0 0 0 0 0 0 0 0 0.25 0"/>
<feBlend mode="normal" in2="effect5_dropShadow_28_13796" result="effect6_dropShadow_28_13796"/>
<feColorMatrix in="SourceAlpha" type="matrix" values="0 0 0 0 0 0 0 0 0 0 0 0 0 0 0 0 0 0 127 0" result="hardAlpha"/>
<feOffset dy="4"/>
<feGaussianBlur stdDeviation="2"/>
<feComposite in2="hardAlpha" operator="out"/>
<feColorMatrix type="matrix" values="0 0 0 0 0 0 0 0 0 0 0 0 0 0 0 0 0 0 0.25 0"/>
<feBlend mode="normal" in2="effect6_dropShadow_28_13796" result="effect7_dropShadow_28_13796"/>
<feColorMatrix in="SourceAlpha" type="matrix" values="0 0 0 0 0 0 0 0 0 0 0 0 0 0 0 0 0 0 127 0" result="hardAlpha"/>
<feOffset dy="4"/>
<feGaussianBlur stdDeviation="2"/>
<feComposite in2="hardAlpha" operator="out"/>
<feColorMatrix type="matrix" values="0 0 0 0 0 0 0 0 0 0 0 0 0 0 0 0 0 0 0.25 0"/>
<feBlend mode="normal" in2="effect7_dropShadow_28_13796" result="effect8_dropShadow_28_13796"/>
<feBlend mode="normal" in="SourceGraphic" in2="effect8_dropShadow_28_13796" result="shape"/>
</filter>
</defs>
</svg>
