<svg width="275" height="58" viewBox="0 0 275 58" fill="none" xmlns="http://www.w3.org/2000/svg">
<rect width="275" height="58" rx="10" fill="#778DA9"/>
<g filter="url(#filter0_dddddddd_28_13799)">
<path d="M87.7259 17.9062C87.5933 16.6657 87.0346 15.6998 86.0497 15.0085C85.0743 14.3172 83.8054 13.9716 82.2429 13.9716C81.1444 13.9716 80.2022 14.1373 79.4162 14.4688C78.6302 14.8002 78.0289 15.25 77.6122 15.8182C77.1955 16.3864 76.9825 17.035 76.973 17.7642C76.973 18.3703 77.1103 18.8958 77.3849 19.3409C77.669 19.786 78.0526 20.1648 78.5355 20.4773C79.0185 20.7803 79.5535 21.036 80.1406 21.2443C80.7277 21.4527 81.3196 21.6278 81.9162 21.7699L84.6435 22.4517C85.742 22.7074 86.7978 23.053 87.8111 23.4886C88.8338 23.9242 89.7476 24.4735 90.5526 25.1364C91.367 25.7992 92.0109 26.5994 92.4844 27.5369C92.9579 28.4744 93.1946 29.5729 93.1946 30.8324C93.1946 32.5369 92.759 34.0379 91.8878 35.3352C91.0166 36.6231 89.7571 37.6316 88.1094 38.3608C86.4711 39.0805 84.4872 39.4403 82.1577 39.4403C79.8944 39.4403 77.9295 39.09 76.2628 38.3892C74.6056 37.6884 73.3082 36.6657 72.3707 35.321C71.4427 33.9763 70.9408 32.3381 70.8651 30.4062H76.0497C76.1255 31.4195 76.438 32.2623 76.9872 32.9347C77.5365 33.607 78.2514 34.1089 79.1321 34.4403C80.0223 34.7718 81.0166 34.9375 82.1151 34.9375C83.2609 34.9375 84.2647 34.767 85.1264 34.4261C85.9976 34.0758 86.6795 33.5928 87.1719 32.9773C87.6643 32.3523 87.9152 31.6231 87.9247 30.7898C87.9152 30.0322 87.6927 29.4072 87.2571 28.9148C86.8215 28.4129 86.2107 27.9962 85.4247 27.6648C84.6482 27.3239 83.7391 27.0208 82.6974 26.7557L79.3878 25.9034C76.992 25.2879 75.098 24.3551 73.706 23.1051C72.3234 21.8456 71.6321 20.1742 71.6321 18.0909C71.6321 16.3769 72.0961 14.8759 73.0241 13.5881C73.9616 12.3002 75.2353 11.3011 76.8452 10.5909C78.455 9.87121 80.2779 9.51136 82.3139 9.51136C84.3783 9.51136 86.187 9.87121 87.7401 10.5909C89.3026 11.3011 90.5289 12.2907 91.419 13.5597C92.3092 14.8191 92.7685 16.268 92.7969 17.9062H87.7259ZM102.353 32.1534L102.339 25.946H103.163L111.004 17.1818H117.012L107.367 27.9205H106.302L102.353 32.1534ZM97.6655 39V9.90909H102.808V39H97.6655ZM111.359 39L104.256 29.071L107.722 25.4489L117.509 39H111.359ZM123.869 47.1818C123.169 47.1818 122.52 47.125 121.923 47.0114C121.336 46.9072 120.867 46.7841 120.517 46.642L121.71 42.6364C122.458 42.8542 123.126 42.9583 123.713 42.9489C124.3 42.9394 124.816 42.7547 125.261 42.3949C125.716 42.0445 126.099 41.4574 126.412 40.6335L126.852 39.4545L118.94 17.1818H124.395L129.423 33.6591H129.651L134.693 17.1818H140.162L131.426 41.642C131.019 42.7973 130.479 43.7869 129.807 44.6108C129.134 45.4441 128.311 46.0786 127.335 46.5142C126.369 46.9593 125.214 47.1818 123.869 47.1818ZM163.209 17.1818L155.439 39H149.757L141.987 17.1818H147.47L152.484 33.3892H152.712L157.74 17.1818H163.209ZM175.684 39.4261C173.496 39.4261 171.607 38.9716 170.016 38.0625C168.435 37.1439 167.218 35.8466 166.366 34.1705C165.513 32.4848 165.087 30.5009 165.087 28.2188C165.087 25.9744 165.513 24.0047 166.366 22.3097C167.228 20.6051 168.43 19.2794 169.974 18.3324C171.517 17.3759 173.331 16.8977 175.414 16.8977C176.759 16.8977 178.028 17.1155 179.221 17.5511C180.424 17.9773 181.484 18.6402 182.403 19.5398C183.331 20.4394 184.06 21.5852 184.59 22.9773C185.121 24.3598 185.386 26.0076 185.386 27.9205V29.4972H167.502V26.0312H180.457C180.447 25.0464 180.234 24.1705 179.817 23.4034C179.401 22.6269 178.818 22.0161 178.07 21.571C177.332 21.1259 176.47 20.9034 175.485 20.9034C174.434 20.9034 173.511 21.1591 172.715 21.6705C171.92 22.1723 171.299 22.8352 170.854 23.6591C170.419 24.4735 170.196 25.3684 170.187 26.3438V29.3693C170.187 30.6383 170.419 31.7273 170.883 32.6364C171.347 33.536 171.996 34.2273 172.829 34.7102C173.662 35.1837 174.638 35.4205 175.755 35.4205C176.503 35.4205 177.18 35.3163 177.786 35.108C178.392 34.8902 178.918 34.5729 179.363 34.1562C179.808 33.7396 180.144 33.2235 180.371 32.608L185.173 33.1477C184.87 34.4167 184.292 35.5246 183.44 36.4716C182.597 37.4091 181.517 38.1383 180.201 38.6591C178.885 39.1705 177.379 39.4261 175.684 39.4261ZM189.736 39V17.1818H194.878V39H189.736ZM192.321 14.0852C191.507 14.0852 190.806 13.8153 190.219 13.2756C189.632 12.7263 189.338 12.0682 189.338 11.3011C189.338 10.5246 189.632 9.86648 190.219 9.3267C190.806 8.77746 191.507 8.50284 192.321 8.50284C193.145 8.50284 193.846 8.77746 194.423 9.3267C195.01 9.86648 195.304 10.5246 195.304 11.3011C195.304 12.0682 195.01 12.7263 194.423 13.2756C193.846 13.8153 193.145 14.0852 192.321 14.0852ZM205.308 9.90909V39H200.165V9.90909H205.308Z" fill="#E0E1DD"/>
</g>
<defs>
<filter id="filter0_dddddddd_28_13799" x="66.8651" y="8.50293" width="142.442" height="46.679" filterUnits="userSpaceOnUse" color-interpolation-filters="sRGB">
<feFlood flood-opacity="0" result="BackgroundImageFix"/>
<feColorMatrix in="SourceAlpha" type="matrix" values="0 0 0 0 0 0 0 0 0 0 0 0 0 0 0 0 0 0 127 0" result="hardAlpha"/>
<feOffset dy="4"/>
<feGaussianBlur stdDeviation="2"/>
<feComposite in2="hardAlpha" operator="out"/>
<feColorMatrix type="matrix" values="0 0 0 0 0 0 0 0 0 0 0 0 0 0 0 0 0 0 0.25 0"/>
<feBlend mode="normal" in2="BackgroundImageFix" result="effect1_dropShadow_28_13799"/>
<feColorMatrix in="SourceAlpha" type="matrix" values="0 0 0 0 0 0 0 0 0 0 0 0 0 0 0 0 0 0 127 0" result="hardAlpha"/>
<feOffset dy="4"/>
<feGaussianBlur stdDeviation="2"/>
<feComposite in2="hardAlpha" operator="out"/>
<feColorMatrix type="matrix" values="0 0 0 0 0 0 0 0 0 0 0 0 0 0 0 0 0 0 0.25 0"/>
<feBlend mode="normal" in2="effect1_dropShadow_28_13799" result="effect2_dropShadow_28_13799"/>
<feColorMatrix in="SourceAlpha" type="matrix" values="0 0 0 0 0 0 0 0 0 0 0 0 0 0 0 0 0 0 127 0" result="hardAlpha"/>
<feOffset dy="4"/>
<feGaussianBlur stdDeviation="2"/>
<feComposite in2="hardAlpha" operator="out"/>
<feColorMatrix type="matrix" values="0 0 0 0 0 0 0 0 0 0 0 0 0 0 0 0 0 0 0.25 0"/>
<feBlend mode="normal" in2="effect2_dropShadow_28_13799" result="effect3_dropShadow_28_13799"/>
<feColorMatrix in="SourceAlpha" type="matrix" values="0 0 0 0 0 0 0 0 0 0 0 0 0 0 0 0 0 0 127 0" result="hardAlpha"/>
<feOffset dy="4"/>
<feGaussianBlur stdDeviation="2"/>
<feComposite in2="hardAlpha" operator="out"/>
<feColorMatrix type="matrix" values="0 0 0 0 0 0 0 0 0 0 0 0 0 0 0 0 0 0 0.25 0"/>
<feBlend mode="normal" in2="effect3_dropShadow_28_13799" result="effect4_dropShadow_28_13799"/>
<feColorMatrix in="SourceAlpha" type="matrix" values="0 0 0 0 0 0 0 0 0 0 0 0 0 0 0 0 0 0 127 0" result="hardAlpha"/>
<feOffset dy="4"/>
<feGaussianBlur stdDeviation="2"/>
<feComposite in2="hardAlpha" operator="out"/>
<feColorMatrix type="matrix" values="0 0 0 0 0 0 0 0 0 0 0 0 0 0 0 0 0 0 0.25 0"/>
<feBlend mode="normal" in2="effect4_dropShadow_28_13799" result="effect5_dropShadow_28_13799"/>
<feColorMatrix in="SourceAlpha" type="matrix" values="0 0 0 0 0 0 0 0 0 0 0 0 0 0 0 0 0 0 127 0" result="hardAlpha"/>
<feOffset dy="4"/>
<feGaussianBlur stdDeviation="2"/>
<feComposite in2="hardAlpha" operator="out"/>
<feColorMatrix type="matrix" values="0 0 0 0 0 0 0 0 0 0 0 0 0 0 0 0 0 0 0.25 0"/>
<feBlend mode="normal" in2="effect5_dropShadow_28_13799" result="effect6_dropShadow_28_13799"/>
<feColorMatrix in="SourceAlpha" type="matrix" values="0 0 0 0 0 0 0 0 0 0 0 0 0 0 0 0 0 0 127 0" result="hardAlpha"/>
<feOffset dy="4"/>
<feGaussianBlur stdDeviation="2"/>
<feComposite in2="hardAlpha" operator="out"/>
<feColorMatrix type="matrix" values="0 0 0 0 0 0 0 0 0 0 0 0 0 0 0 0 0 0 0.25 0"/>
<feBlend mode="normal" in2="effect6_dropShadow_28_13799" result="effect7_dropShadow_28_13799"/>
<feColorMatrix in="SourceAlpha" type="matrix" values="0 0 0 0 0 0 0 0 0 0 0 0 0 0 0 0 0 0 127 0" result="hardAlpha"/>
<feOffset dy="4"/>
<feGaussianBlur stdDeviation="2"/>
<feComposite in2="hardAlpha" operator="out"/>
<feColorMatrix type="matrix" values="0 0 0 0 0 0 0 0 0 0 0 0 0 0 0 0 0 0 0.25 0"/>
<feBlend mode="normal" in2="effect7_dropShadow_28_13799" result="effect8_dropShadow_28_13799"/>
<feBlend mode="normal" in="SourceGraphic" in2="effect8_dropShadow_28_13799" result="shape"/>
</filter>
</defs>
</svg>
