<svg width="275" height="58" viewBox="0 0 275 58" fill="none" xmlns="http://www.w3.org/2000/svg">
<rect width="275" height="58" rx="10" fill="#778DA9"/>
<g filter="url(#filter0_dddddddd_28_13787)">
<path d="M30.0881 9.90909H36.5369L45.1733 30.9886H45.5142L54.1506 9.90909H60.5994V39H55.5426V19.0142H55.2727L47.233 38.9148H43.4545L35.4148 18.9716H35.1449V39H30.0881V9.90909ZM69.3068 47.1818C68.6061 47.1818 67.9574 47.125 67.3608 47.0114C66.7737 46.9072 66.3049 46.7841 65.9545 46.642L67.1477 42.6364C67.8958 42.8542 68.5634 42.9583 69.1506 42.9489C69.7377 42.9394 70.2538 42.7547 70.6989 42.3949C71.1534 42.0445 71.5369 41.4574 71.8494 40.6335L72.2898 39.4545L64.3778 17.1818H69.8324L74.8608 33.6591H75.0881L80.1307 17.1818H85.5994L76.8636 41.642C76.4564 42.7973 75.9167 43.7869 75.2443 44.6108C74.572 45.4441 73.7481 46.0786 72.7727 46.5142C71.8068 46.9593 70.6515 47.1818 69.3068 47.1818ZM106.402 22.9489L101.714 23.4602C101.582 22.9867 101.35 22.5417 101.018 22.125C100.696 21.7083 100.261 21.3722 99.7116 21.1165C99.1624 20.8608 98.4901 20.733 97.6946 20.733C96.6245 20.733 95.7249 20.965 94.9957 21.429C94.276 21.893 93.9209 22.4943 93.9304 23.233C93.9209 23.8674 94.1529 24.3835 94.6264 24.7812C95.1094 25.179 95.9048 25.5057 97.0128 25.7614L100.734 26.5568C102.799 27.0019 104.333 27.7074 105.337 28.6733C106.35 29.6392 106.861 30.9034 106.871 32.4659C106.861 33.839 106.459 35.0511 105.663 36.1023C104.877 37.1439 103.784 37.9583 102.382 38.5455C100.981 39.1326 99.3707 39.4261 97.5526 39.4261C94.8821 39.4261 92.7325 38.8674 91.1037 37.75C89.4749 36.6231 88.5043 35.0559 88.1918 33.0483L93.206 32.5653C93.4332 33.5502 93.9162 34.2936 94.6548 34.7955C95.3935 35.2973 96.3546 35.5483 97.5384 35.5483C98.7599 35.5483 99.7401 35.2973 100.479 34.7955C101.227 34.2936 101.601 33.6733 101.601 32.9347C101.601 32.3097 101.359 31.7936 100.876 31.3864C100.403 30.9792 99.6643 30.6667 98.6605 30.4489L94.9389 29.6676C92.8461 29.232 91.2978 28.4981 90.294 27.4659C89.2902 26.4242 88.7931 25.108 88.8026 23.517C88.7931 22.1723 89.1577 21.0076 89.8963 20.0227C90.6444 19.0284 91.6813 18.2614 93.0071 17.7216C94.3423 17.1723 95.8812 16.8977 97.6236 16.8977C100.18 16.8977 102.193 17.4422 103.661 18.5312C105.138 19.6203 106.052 21.0928 106.402 22.9489ZM122.006 17.1818V21.1591H109.463V17.1818H122.006ZM112.56 11.9545H117.702V32.4375C117.702 33.1288 117.806 33.6591 118.014 34.0284C118.232 34.3883 118.516 34.6345 118.866 34.767C119.217 34.8996 119.605 34.9659 120.031 34.9659C120.353 34.9659 120.647 34.9422 120.912 34.8949C121.187 34.8475 121.395 34.8049 121.537 34.767L122.403 38.7869C122.129 38.8816 121.736 38.9858 121.224 39.0994C120.723 39.2131 120.107 39.2794 119.378 39.2983C118.09 39.3362 116.93 39.142 115.898 38.7159C114.866 38.2803 114.046 37.608 113.44 36.6989C112.844 35.7898 112.55 34.6534 112.56 33.2898V11.9545ZM152.528 24.4545C152.528 27.589 151.941 30.2737 150.766 32.5085C149.602 34.7339 148.011 36.4384 145.994 37.6222C143.986 38.8059 141.709 39.3977 139.161 39.3977C136.614 39.3977 134.332 38.8059 132.315 37.6222C130.307 36.429 128.716 34.7197 127.542 32.4943C126.377 30.2595 125.795 27.5795 125.795 24.4545C125.795 21.3201 126.377 18.6402 127.542 16.4148C128.716 14.1799 130.307 12.4706 132.315 11.2869C134.332 10.1032 136.614 9.51136 139.161 9.51136C141.709 9.51136 143.986 10.1032 145.994 11.2869C148.011 12.4706 149.602 14.1799 150.766 16.4148C151.941 18.6402 152.528 21.3201 152.528 24.4545ZM147.229 24.4545C147.229 22.2481 146.884 20.3873 146.192 18.8722C145.511 17.3475 144.564 16.197 143.352 15.4205C142.139 14.6345 140.743 14.2415 139.161 14.2415C137.58 14.2415 136.183 14.6345 134.971 15.4205C133.759 16.197 132.807 17.3475 132.116 18.8722C131.434 20.3873 131.093 22.2481 131.093 24.4545C131.093 26.661 131.434 28.5265 132.116 30.0511C132.807 31.5663 133.759 32.7169 134.971 33.5028C136.183 34.2794 137.58 34.6676 139.161 34.6676C140.743 34.6676 142.139 34.2794 143.352 33.5028C144.564 32.7169 145.511 31.5663 146.192 30.0511C146.884 28.5265 147.229 26.661 147.229 24.4545ZM166.8 39.4261C164.622 39.4261 162.751 38.9479 161.189 37.9915C159.636 37.035 158.438 35.714 157.595 34.0284C156.762 32.3333 156.345 30.3826 156.345 28.1761C156.345 25.9602 156.771 24.0047 157.624 22.3097C158.476 20.6051 159.679 19.2794 161.232 18.3324C162.794 17.3759 164.641 16.8977 166.771 16.8977C168.542 16.8977 170.109 17.2244 171.473 17.8778C172.846 18.5218 173.94 19.4356 174.754 20.6193C175.569 21.7936 176.033 23.1667 176.146 24.7386H171.232C171.033 23.6875 170.559 22.8116 169.811 22.1108C169.072 21.4006 168.083 21.0455 166.842 21.0455C165.791 21.0455 164.868 21.3295 164.072 21.8977C163.277 22.4564 162.657 23.2614 162.212 24.3125C161.776 25.3636 161.558 26.6231 161.558 28.0909C161.558 29.5777 161.776 30.8561 162.212 31.9261C162.647 32.9867 163.258 33.8059 164.044 34.3835C164.839 34.9517 165.772 35.2358 166.842 35.2358C167.6 35.2358 168.277 35.0937 168.874 34.8097C169.48 34.5161 169.986 34.0947 170.393 33.5455C170.801 32.9962 171.08 32.3286 171.232 31.5426H176.146C176.023 33.0862 175.569 34.4545 174.783 35.6477C173.997 36.8314 172.927 37.7595 171.572 38.4318C170.218 39.0947 168.627 39.4261 166.8 39.4261ZM190.028 39.4261C187.84 39.4261 185.951 38.9716 184.36 38.0625C182.779 37.1439 181.562 35.8466 180.71 34.1705C179.857 32.4848 179.431 30.5009 179.431 28.2188C179.431 25.9744 179.857 24.0047 180.71 22.3097C181.571 20.6051 182.774 19.2794 184.317 18.3324C185.861 17.3759 187.674 16.8977 189.758 16.8977C191.103 16.8977 192.371 17.1155 193.565 17.5511C194.767 17.9773 195.828 18.6402 196.746 19.5398C197.674 20.4394 198.404 21.5852 198.934 22.9773C199.464 24.3598 199.729 26.0076 199.729 27.9205V29.4972H181.846V26.0312H194.8C194.791 25.0464 194.578 24.1705 194.161 23.4034C193.745 22.6269 193.162 22.0161 192.414 21.571C191.675 21.1259 190.814 20.9034 189.829 20.9034C188.778 20.9034 187.854 21.1591 187.059 21.6705C186.263 22.1723 185.643 22.8352 185.198 23.6591C184.763 24.4735 184.54 25.3684 184.531 26.3438V29.3693C184.531 30.6383 184.763 31.7273 185.227 32.6364C185.691 33.536 186.339 34.2273 187.173 34.7102C188.006 35.1837 188.981 35.4205 190.099 35.4205C190.847 35.4205 191.524 35.3163 192.13 35.108C192.736 34.8902 193.262 34.5729 193.707 34.1562C194.152 33.7396 194.488 33.2235 194.715 32.608L199.516 33.1477C199.213 34.4167 198.636 35.5246 197.783 36.4716C196.941 37.4091 195.861 38.1383 194.545 38.6591C193.228 39.1705 191.723 39.4261 190.028 39.4261ZM210.358 39.4403C208.975 39.4403 207.73 39.1941 206.622 38.7017C205.524 38.1998 204.652 37.4612 204.009 36.4858C203.374 35.5104 203.057 34.3078 203.057 32.8778C203.057 31.6468 203.284 30.6288 203.739 29.8239C204.193 29.0189 204.813 28.375 205.599 27.892C206.385 27.4091 207.271 27.0445 208.256 26.7983C209.25 26.5426 210.277 26.358 211.338 26.2443C212.616 26.1117 213.653 25.9934 214.449 25.8892C215.244 25.7756 215.822 25.6051 216.182 25.3778C216.551 25.1411 216.736 24.7765 216.736 24.2841V24.1989C216.736 23.1288 216.419 22.3002 215.784 21.7131C215.15 21.1259 214.236 20.8324 213.043 20.8324C211.783 20.8324 210.784 21.107 210.045 21.6562C209.316 22.2055 208.824 22.8542 208.568 23.6023L203.767 22.9205C204.146 21.5947 204.771 20.4867 205.642 19.5966C206.513 18.697 207.579 18.0246 208.838 17.5795C210.098 17.125 211.49 16.8977 213.014 16.8977C214.065 16.8977 215.112 17.0208 216.153 17.267C217.195 17.5133 218.147 17.9205 219.009 18.4886C219.87 19.0473 220.562 19.8097 221.082 20.7756C221.613 21.7415 221.878 22.9489 221.878 24.3977V39H216.935V36.0028H216.764C216.452 36.6089 216.011 37.1771 215.443 37.7074C214.884 38.2282 214.179 38.6496 213.327 38.9716C212.484 39.2841 211.494 39.4403 210.358 39.4403ZM211.693 35.6619C212.725 35.6619 213.62 35.4583 214.378 35.0511C215.135 34.6345 215.718 34.0852 216.125 33.4034C216.542 32.7216 216.75 31.9782 216.75 31.1733V28.6023C216.589 28.7348 216.314 28.858 215.926 28.9716C215.547 29.0852 215.121 29.1847 214.648 29.2699C214.174 29.3551 213.705 29.4309 213.241 29.4972C212.777 29.5634 212.375 29.6203 212.034 29.6676C211.267 29.7718 210.58 29.9422 209.974 30.179C209.368 30.4157 208.89 30.7472 208.54 31.1733C208.189 31.59 208.014 32.1297 208.014 32.7926C208.014 33.7396 208.36 34.4545 209.051 34.9375C209.742 35.4205 210.623 35.6619 211.693 35.6619ZM232.19 26.2159V39H227.048V17.1818H231.963V20.8892H232.219C232.721 19.6676 233.521 18.697 234.619 17.9773C235.727 17.2576 237.096 16.8977 238.724 16.8977C240.23 16.8977 241.542 17.2197 242.659 17.8636C243.786 18.5076 244.657 19.4403 245.273 20.6619C245.898 21.8835 246.205 23.3655 246.196 25.108V39H241.054V25.9034C241.054 24.4451 240.675 23.304 239.918 22.4801C239.17 21.6562 238.133 21.2443 236.807 21.2443C235.907 21.2443 235.107 21.4432 234.406 21.8409C233.715 22.2292 233.17 22.7926 232.773 23.5312C232.384 24.2699 232.19 25.1648 232.19 26.2159Z" fill="#E0E1DD"/>
</g>
<defs>
<filter id="filter0_dddddddd_28_13787" x="26.088" y="9.51147" width="224.122" height="45.6704" filterUnits="userSpaceOnUse" color-interpolation-filters="sRGB">
<feFlood flood-opacity="0" result="BackgroundImageFix"/>
<feColorMatrix in="SourceAlpha" type="matrix" values="0 0 0 0 0 0 0 0 0 0 0 0 0 0 0 0 0 0 127 0" result="hardAlpha"/>
<feOffset dy="4"/>
<feGaussianBlur stdDeviation="2"/>
<feComposite in2="hardAlpha" operator="out"/>
<feColorMatrix type="matrix" values="0 0 0 0 0 0 0 0 0 0 0 0 0 0 0 0 0 0 0.25 0"/>
<feBlend mode="normal" in2="BackgroundImageFix" result="effect1_dropShadow_28_13787"/>
<feColorMatrix in="SourceAlpha" type="matrix" values="0 0 0 0 0 0 0 0 0 0 0 0 0 0 0 0 0 0 127 0" result="hardAlpha"/>
<feOffset dy="4"/>
<feGaussianBlur stdDeviation="2"/>
<feComposite in2="hardAlpha" operator="out"/>
<feColorMatrix type="matrix" values="0 0 0 0 0 0 0 0 0 0 0 0 0 0 0 0 0 0 0.25 0"/>
<feBlend mode="normal" in2="effect1_dropShadow_28_13787" result="effect2_dropShadow_28_13787"/>
<feColorMatrix in="SourceAlpha" type="matrix" values="0 0 0 0 0 0 0 0 0 0 0 0 0 0 0 0 0 0 127 0" result="hardAlpha"/>
<feOffset dy="4"/>
<feGaussianBlur stdDeviation="2"/>
<feComposite in2="hardAlpha" operator="out"/>
<feColorMatrix type="matrix" values="0 0 0 0 0 0 0 0 0 0 0 0 0 0 0 0 0 0 0.25 0"/>
<feBlend mode="normal" in2="effect2_dropShadow_28_13787" result="effect3_dropShadow_28_13787"/>
<feColorMatrix in="SourceAlpha" type="matrix" values="0 0 0 0 0 0 0 0 0 0 0 0 0 0 0 0 0 0 127 0" result="hardAlpha"/>
<feOffset dy="4"/>
<feGaussianBlur stdDeviation="2"/>
<feComposite in2="hardAlpha" operator="out"/>
<feColorMatrix type="matrix" values="0 0 0 0 0 0 0 0 0 0 0 0 0 0 0 0 0 0 0.25 0"/>
<feBlend mode="normal" in2="effect3_dropShadow_28_13787" result="effect4_dropShadow_28_13787"/>
<feColorMatrix in="SourceAlpha" type="matrix" values="0 0 0 0 0 0 0 0 0 0 0 0 0 0 0 0 0 0 127 0" result="hardAlpha"/>
<feOffset dy="4"/>
<feGaussianBlur stdDeviation="2"/>
<feComposite in2="hardAlpha" operator="out"/>
<feColorMatrix type="matrix" values="0 0 0 0 0 0 0 0 0 0 0 0 0 0 0 0 0 0 0.25 0"/>
<feBlend mode="normal" in2="effect4_dropShadow_28_13787" result="effect5_dropShadow_28_13787"/>
<feColorMatrix in="SourceAlpha" type="matrix" values="0 0 0 0 0 0 0 0 0 0 0 0 0 0 0 0 0 0 127 0" result="hardAlpha"/>
<feOffset dy="4"/>
<feGaussianBlur stdDeviation="2"/>
<feComposite in2="hardAlpha" operator="out"/>
<feColorMatrix type="matrix" values="0 0 0 0 0 0 0 0 0 0 0 0 0 0 0 0 0 0 0.25 0"/>
<feBlend mode="normal" in2="effect5_dropShadow_28_13787" result="effect6_dropShadow_28_13787"/>
<feColorMatrix in="SourceAlpha" type="matrix" values="0 0 0 0 0 0 0 0 0 0 0 0 0 0 0 0 0 0 127 0" result="hardAlpha"/>
<feOffset dy="4"/>
<feGaussianBlur stdDeviation="2"/>
<feComposite in2="hardAlpha" operator="out"/>
<feColorMatrix type="matrix" values="0 0 0 0 0 0 0 0 0 0 0 0 0 0 0 0 0 0 0.25 0"/>
<feBlend mode="normal" in2="effect6_dropShadow_28_13787" result="effect7_dropShadow_28_13787"/>
<feColorMatrix in="SourceAlpha" type="matrix" values="0 0 0 0 0 0 0 0 0 0 0 0 0 0 0 0 0 0 127 0" result="hardAlpha"/>
<feOffset dy="4"/>
<feGaussianBlur stdDeviation="2"/>
<feComposite in2="hardAlpha" operator="out"/>
<feColorMatrix type="matrix" values="0 0 0 0 0 0 0 0 0 0 0 0 0 0 0 0 0 0 0.25 0"/>
<feBlend mode="normal" in2="effect7_dropShadow_28_13787" result="effect8_dropShadow_28_13787"/>
<feBlend mode="normal" in="SourceGraphic" in2="effect8_dropShadow_28_13787" result="shape"/>
</filter>
</defs>
</svg>
