<svg width="275" height="58" viewBox="0 0 275 58" fill="none" xmlns="http://www.w3.org/2000/svg">
<rect width="275" height="58" rx="10" fill="#778DA9"/>
<g filter="url(#filter0_dddddddd_28_13793)">
<path d="M63.0568 9.90909V39H58.3693L44.6619 19.1847H44.4205V39H39.1506V9.90909H43.8665L57.5597 29.7386H57.8153V9.90909H63.0568ZM74.8501 39.4403C73.4676 39.4403 72.2223 39.1941 71.1143 38.7017C70.0159 38.1998 69.1446 37.4612 68.5007 36.4858C67.8662 35.5104 67.549 34.3078 67.549 32.8778C67.549 31.6468 67.7763 30.6288 68.2308 29.8239C68.6854 29.0189 69.3056 28.375 70.0916 27.892C70.8776 27.4091 71.763 27.0445 72.7479 26.7983C73.7422 26.5426 74.7696 26.358 75.8303 26.2443C77.1087 26.1117 78.1456 25.9934 78.9411 25.8892C79.7365 25.7756 80.3142 25.6051 80.674 25.3778C81.0433 25.1411 81.228 24.7765 81.228 24.2841V24.1989C81.228 23.1288 80.9107 22.3002 80.2763 21.7131C79.6418 21.1259 78.728 20.8324 77.5348 20.8324C76.2753 20.8324 75.2763 21.107 74.5376 21.6562C73.8085 22.2055 73.3161 22.8542 73.0604 23.6023L68.2592 22.9205C68.638 21.5947 69.263 20.4867 70.1342 19.5966C71.0054 18.697 72.0708 18.0246 73.3303 17.5795C74.5897 17.125 75.9818 16.8977 77.5064 16.8977C78.5575 16.8977 79.6039 17.0208 80.6456 17.267C81.6873 17.5133 82.639 17.9205 83.5007 18.4886C84.3625 19.0473 85.0537 19.8097 85.5746 20.7756C86.1049 21.7415 86.37 22.9489 86.37 24.3977V39H81.4268V36.0028H81.2564C80.9439 36.6089 80.5036 37.1771 79.9354 37.7074C79.3767 38.2282 78.6712 38.6496 77.8189 38.9716C76.9761 39.2841 75.9865 39.4403 74.8501 39.4403ZM76.1854 35.6619C77.2176 35.6619 78.1125 35.4583 78.87 35.0511C79.6276 34.6345 80.21 34.0852 80.6172 33.4034C81.0339 32.7216 81.2422 31.9782 81.2422 31.1733V28.6023C81.0812 28.7348 80.8066 28.858 80.4183 28.9716C80.0395 29.0852 79.6134 29.1847 79.1399 29.2699C78.6664 29.3551 78.1977 29.4309 77.7337 29.4972C77.2696 29.5634 76.8672 29.6203 76.5263 29.6676C75.7592 29.7718 75.0727 29.9422 74.4666 30.179C73.8606 30.4157 73.3823 30.7472 73.032 31.1733C72.6816 31.59 72.5064 32.1297 72.5064 32.7926C72.5064 33.7396 72.852 34.4545 73.5433 34.9375C74.2346 35.4205 75.1153 35.6619 76.1854 35.6619ZM91.5405 39V17.1818H96.4553V20.8892H96.7109C97.1655 19.6392 97.9183 18.6638 98.9695 17.9631C100.021 17.2528 101.275 16.8977 102.734 16.8977C104.211 16.8977 105.456 17.2576 106.469 17.9773C107.492 18.6875 108.212 19.6581 108.629 20.8892H108.856C109.339 19.6771 110.153 18.7112 111.299 17.9915C112.454 17.2623 113.823 16.8977 115.404 16.8977C117.412 16.8977 119.05 17.5322 120.319 18.8011C121.588 20.0701 122.222 21.9214 122.222 24.3551V39H117.066V25.1506C117.066 23.7964 116.706 22.8068 115.987 22.1818C115.267 21.5473 114.386 21.2301 113.344 21.2301C112.104 21.2301 111.133 21.6184 110.433 22.3949C109.741 23.1619 109.396 24.161 109.396 25.392V39H104.353V24.9375C104.353 23.8106 104.012 22.911 103.33 22.2386C102.658 21.5663 101.777 21.2301 100.688 21.2301C99.9496 21.2301 99.2772 21.4195 98.6712 21.7983C98.0651 22.1676 97.5821 22.6932 97.2223 23.375C96.8625 24.0473 96.6825 24.8333 96.6825 25.733V39H91.5405ZM137.098 39.4261C134.911 39.4261 133.021 38.9716 131.43 38.0625C129.849 37.1439 128.632 35.8466 127.78 34.1705C126.928 32.4848 126.501 30.5009 126.501 28.2188C126.501 25.9744 126.928 24.0047 127.78 22.3097C128.642 20.6051 129.844 19.2794 131.388 18.3324C132.931 17.3759 134.745 16.8977 136.828 16.8977C138.173 16.8977 139.442 17.1155 140.635 17.5511C141.838 17.9773 142.898 18.6402 143.817 19.5398C144.745 20.4394 145.474 21.5852 146.004 22.9773C146.535 24.3598 146.8 26.0076 146.8 27.9205V29.4972H128.916V26.0312H141.871C141.861 25.0464 141.648 24.1705 141.232 23.4034C140.815 22.6269 140.232 22.0161 139.484 21.571C138.746 21.1259 137.884 20.9034 136.899 20.9034C135.848 20.9034 134.925 21.1591 134.129 21.6705C133.334 22.1723 132.714 22.8352 132.268 23.6591C131.833 24.4735 131.61 25.3684 131.601 26.3438V29.3693C131.601 30.6383 131.833 31.7273 132.297 32.6364C132.761 33.536 133.41 34.2273 134.243 34.7102C135.076 35.1837 136.052 35.4205 137.169 35.4205C137.917 35.4205 138.594 35.3163 139.2 35.108C139.806 34.8902 140.332 34.5729 140.777 34.1562C141.222 33.7396 141.558 33.2235 141.786 32.608L146.587 33.1477C146.284 34.4167 145.706 35.5246 144.854 36.4716C144.011 37.4091 142.931 38.1383 141.615 38.6591C140.299 39.1705 138.793 39.4261 137.098 39.4261ZM167.187 17.9062C167.054 16.6657 166.496 15.6998 165.511 15.0085C164.535 14.3172 163.266 13.9716 161.704 13.9716C160.605 13.9716 159.663 14.1373 158.877 14.4688C158.091 14.8002 157.49 15.25 157.073 15.8182C156.656 16.3864 156.443 17.035 156.434 17.7642C156.434 18.3703 156.571 18.8958 156.846 19.3409C157.13 19.786 157.513 20.1648 157.996 20.4773C158.479 20.7803 159.014 21.036 159.602 21.2443C160.189 21.4527 160.781 21.6278 161.377 21.7699L164.104 22.4517C165.203 22.7074 166.259 23.053 167.272 23.4886C168.295 23.9242 169.209 24.4735 170.013 25.1364C170.828 25.7992 171.472 26.5994 171.945 27.5369C172.419 28.4744 172.656 29.5729 172.656 30.8324C172.656 32.5369 172.22 34.0379 171.349 35.3352C170.478 36.6231 169.218 37.6316 167.57 38.3608C165.932 39.0805 163.948 39.4403 161.619 39.4403C159.355 39.4403 157.39 39.09 155.724 38.3892C154.067 37.6884 152.769 36.6657 151.832 35.321C150.904 33.9763 150.402 32.3381 150.326 30.4062H155.511C155.586 31.4195 155.899 32.2623 156.448 32.9347C156.997 33.607 157.712 34.1089 158.593 34.4403C159.483 34.7718 160.478 34.9375 161.576 34.9375C162.722 34.9375 163.726 34.767 164.587 34.4261C165.459 34.0758 166.14 33.5928 166.633 32.9773C167.125 32.3523 167.376 31.6231 167.386 30.7898C167.376 30.0322 167.154 29.4072 166.718 28.9148C166.282 28.4129 165.672 27.9962 164.886 27.6648C164.109 27.3239 163.2 27.0208 162.158 26.7557L158.849 25.9034C156.453 25.2879 154.559 24.3551 153.167 23.1051C151.784 21.8456 151.093 20.1742 151.093 18.0909C151.093 16.3769 151.557 14.8759 152.485 13.5881C153.423 12.3002 154.696 11.3011 156.306 10.5909C157.916 9.87121 159.739 9.51136 161.775 9.51136C163.839 9.51136 165.648 9.87121 167.201 10.5909C168.763 11.3011 169.99 12.2907 170.88 13.5597C171.77 14.8191 172.229 16.268 172.258 17.9062H167.187ZM182.268 26.2159V39H177.126V9.90909H182.155V20.8892H182.411C182.922 19.6581 183.713 18.6875 184.783 17.9773C185.862 17.2576 187.235 16.8977 188.902 16.8977C190.417 16.8977 191.738 17.215 192.865 17.8494C193.992 18.4839 194.863 19.4119 195.479 20.6335C196.104 21.8551 196.416 23.3466 196.416 25.108V39H191.274V25.9034C191.274 24.4356 190.895 23.2945 190.138 22.4801C189.39 21.6562 188.339 21.2443 186.984 21.2443C186.075 21.2443 185.261 21.4432 184.541 21.8409C183.831 22.2292 183.272 22.7926 182.865 23.5312C182.467 24.2699 182.268 25.1648 182.268 26.2159ZM201.658 39V17.1818H206.8V39H201.658ZM204.243 14.0852C203.429 14.0852 202.728 13.8153 202.141 13.2756C201.554 12.7263 201.26 12.0682 201.26 11.3011C201.26 10.5246 201.554 9.86648 202.141 9.3267C202.728 8.77746 203.429 8.50284 204.243 8.50284C205.067 8.50284 205.768 8.77746 206.345 9.3267C206.932 9.86648 207.226 10.5246 207.226 11.3011C207.226 12.0682 206.932 12.7263 206.345 13.2756C205.768 13.8153 205.067 14.0852 204.243 14.0852ZM223.138 17.1818V21.1591H210.241V17.1818H223.138ZM213.465 39V15.1222C213.465 13.6544 213.768 12.4328 214.374 11.4574C214.99 10.482 215.814 9.75284 216.846 9.26989C217.878 8.78693 219.024 8.54545 220.283 8.54545C221.174 8.54545 221.964 8.61648 222.656 8.75852C223.347 8.90057 223.858 9.02841 224.19 9.14205L223.167 13.1193C222.949 13.053 222.674 12.9867 222.343 12.9205C222.012 12.8447 221.642 12.8068 221.235 12.8068C220.279 12.8068 219.602 13.0388 219.204 13.5028C218.816 13.9574 218.621 14.6108 218.621 15.4631V39H213.465ZM238.06 17.1818V21.1591H225.518V17.1818H238.06ZM228.614 11.9545H233.756V32.4375C233.756 33.1288 233.861 33.6591 234.069 34.0284C234.287 34.3883 234.571 34.6345 234.921 34.767C235.272 34.8996 235.66 34.9659 236.086 34.9659C236.408 34.9659 236.701 34.9422 236.967 34.8949C237.241 34.8475 237.45 34.8049 237.592 34.767L238.458 38.7869C238.183 38.8816 237.79 38.9858 237.279 39.0994C236.777 39.2131 236.162 39.2794 235.433 39.2983C234.145 39.3362 232.985 39.142 231.952 38.7159C230.92 38.2803 230.101 37.608 229.495 36.6989C228.898 35.7898 228.605 34.6534 228.614 33.2898V11.9545Z" fill="#E0E1DD"/>
</g>
<defs>
<filter id="filter0_dddddddd_28_13793" x="35.1506" y="8.50293" width="207.307" height="38.9375" filterUnits="userSpaceOnUse" color-interpolation-filters="sRGB">
<feFlood flood-opacity="0" result="BackgroundImageFix"/>
<feColorMatrix in="SourceAlpha" type="matrix" values="0 0 0 0 0 0 0 0 0 0 0 0 0 0 0 0 0 0 127 0" result="hardAlpha"/>
<feOffset dy="4"/>
<feGaussianBlur stdDeviation="2"/>
<feComposite in2="hardAlpha" operator="out"/>
<feColorMatrix type="matrix" values="0 0 0 0 0 0 0 0 0 0 0 0 0 0 0 0 0 0 0.25 0"/>
<feBlend mode="normal" in2="BackgroundImageFix" result="effect1_dropShadow_28_13793"/>
<feColorMatrix in="SourceAlpha" type="matrix" values="0 0 0 0 0 0 0 0 0 0 0 0 0 0 0 0 0 0 127 0" result="hardAlpha"/>
<feOffset dy="4"/>
<feGaussianBlur stdDeviation="2"/>
<feComposite in2="hardAlpha" operator="out"/>
<feColorMatrix type="matrix" values="0 0 0 0 0 0 0 0 0 0 0 0 0 0 0 0 0 0 0.25 0"/>
<feBlend mode="normal" in2="effect1_dropShadow_28_13793" result="effect2_dropShadow_28_13793"/>
<feColorMatrix in="SourceAlpha" type="matrix" values="0 0 0 0 0 0 0 0 0 0 0 0 0 0 0 0 0 0 127 0" result="hardAlpha"/>
<feOffset dy="4"/>
<feGaussianBlur stdDeviation="2"/>
<feComposite in2="hardAlpha" operator="out"/>
<feColorMatrix type="matrix" values="0 0 0 0 0 0 0 0 0 0 0 0 0 0 0 0 0 0 0.25 0"/>
<feBlend mode="normal" in2="effect2_dropShadow_28_13793" result="effect3_dropShadow_28_13793"/>
<feColorMatrix in="SourceAlpha" type="matrix" values="0 0 0 0 0 0 0 0 0 0 0 0 0 0 0 0 0 0 127 0" result="hardAlpha"/>
<feOffset dy="4"/>
<feGaussianBlur stdDeviation="2"/>
<feComposite in2="hardAlpha" operator="out"/>
<feColorMatrix type="matrix" values="0 0 0 0 0 0 0 0 0 0 0 0 0 0 0 0 0 0 0.25 0"/>
<feBlend mode="normal" in2="effect3_dropShadow_28_13793" result="effect4_dropShadow_28_13793"/>
<feColorMatrix in="SourceAlpha" type="matrix" values="0 0 0 0 0 0 0 0 0 0 0 0 0 0 0 0 0 0 127 0" result="hardAlpha"/>
<feOffset dy="4"/>
<feGaussianBlur stdDeviation="2"/>
<feComposite in2="hardAlpha" operator="out"/>
<feColorMatrix type="matrix" values="0 0 0 0 0 0 0 0 0 0 0 0 0 0 0 0 0 0 0.25 0"/>
<feBlend mode="normal" in2="effect4_dropShadow_28_13793" result="effect5_dropShadow_28_13793"/>
<feColorMatrix in="SourceAlpha" type="matrix" values="0 0 0 0 0 0 0 0 0 0 0 0 0 0 0 0 0 0 127 0" result="hardAlpha"/>
<feOffset dy="4"/>
<feGaussianBlur stdDeviation="2"/>
<feComposite in2="hardAlpha" operator="out"/>
<feColorMatrix type="matrix" values="0 0 0 0 0 0 0 0 0 0 0 0 0 0 0 0 0 0 0.25 0"/>
<feBlend mode="normal" in2="effect5_dropShadow_28_13793" result="effect6_dropShadow_28_13793"/>
<feColorMatrix in="SourceAlpha" type="matrix" values="0 0 0 0 0 0 0 0 0 0 0 0 0 0 0 0 0 0 127 0" result="hardAlpha"/>
<feOffset dy="4"/>
<feGaussianBlur stdDeviation="2"/>
<feComposite in2="hardAlpha" operator="out"/>
<feColorMatrix type="matrix" values="0 0 0 0 0 0 0 0 0 0 0 0 0 0 0 0 0 0 0.25 0"/>
<feBlend mode="normal" in2="effect6_dropShadow_28_13793" result="effect7_dropShadow_28_13793"/>
<feColorMatrix in="SourceAlpha" type="matrix" values="0 0 0 0 0 0 0 0 0 0 0 0 0 0 0 0 0 0 127 0" result="hardAlpha"/>
<feOffset dy="4"/>
<feGaussianBlur stdDeviation="2"/>
<feComposite in2="hardAlpha" operator="out"/>
<feColorMatrix type="matrix" values="0 0 0 0 0 0 0 0 0 0 0 0 0 0 0 0 0 0 0.25 0"/>
<feBlend mode="normal" in2="effect7_dropShadow_28_13793" result="effect8_dropShadow_28_13793"/>
<feBlend mode="normal" in="SourceGraphic" in2="effect8_dropShadow_28_13793" result="shape"/>
</filter>
</defs>
</svg>
