<svg width="275" height="58" viewBox="0 0 275 58" fill="none" xmlns="http://www.w3.org/2000/svg">
<rect width="275" height="58" rx="10" fill="#778DA9"/>
<g filter="url(#filter0_dddddddd_28_13784)">
<path d="M76.4413 21.1989C76.2046 20.4318 75.8779 19.7453 75.4612 19.1392C75.054 18.5237 74.5616 17.9981 73.9839 17.5625C73.4158 17.1269 72.7624 16.8002 72.0237 16.5824C71.2851 16.3551 70.4802 16.2415 69.6089 16.2415C68.0464 16.2415 66.6544 16.6345 65.4328 17.4205C64.2112 18.2064 63.25 19.3617 62.5493 20.8864C61.858 22.4015 61.5124 24.2481 61.5124 26.4261C61.5124 28.6231 61.858 30.4839 62.5493 32.0085C63.2406 33.5331 64.2017 34.6932 65.4328 35.4886C66.6639 36.2746 68.0938 36.6676 69.7226 36.6676C71.1999 36.6676 72.4783 36.3835 73.5578 35.8153C74.6468 35.2472 75.4849 34.4422 76.072 33.4006C76.6591 32.3494 76.9527 31.1184 76.9527 29.7074L78.1459 29.892H70.2481V25.7727H82.0521V29.267C82.0521 31.7576 81.5218 33.9119 80.4612 35.7301C79.4006 37.5483 77.9423 38.9498 76.0862 39.9347C74.2302 40.91 72.0995 41.3977 69.6942 41.3977C67.0142 41.3977 64.661 40.7964 62.6345 39.5938C60.6175 38.3816 59.0408 36.6629 57.9044 34.4375C56.7775 32.2027 56.2141 29.5511 56.2141 26.483C56.2141 24.1345 56.5455 22.0369 57.2084 20.1903C57.8807 18.3438 58.8182 16.7765 60.0209 15.4886C61.2235 14.1913 62.6345 13.2064 64.2538 12.5341C65.8731 11.8523 67.6345 11.5114 69.5379 11.5114C71.1478 11.5114 72.6487 11.7481 74.0408 12.2216C75.4328 12.6856 76.6686 13.3485 77.7481 14.2102C78.8372 15.072 79.732 16.0947 80.4328 17.2784C81.1336 18.4621 81.5928 19.7689 81.8106 21.1989H76.4413ZM96.4378 41.4261C94.3071 41.4261 92.4605 40.9574 90.898 40.0199C89.3355 39.0824 88.1234 37.7708 87.2616 36.0852C86.4094 34.3996 85.9832 32.4299 85.9832 30.1761C85.9832 27.9223 86.4094 25.9479 87.2616 24.2528C88.1234 22.5578 89.3355 21.2415 90.898 20.304C92.4605 19.3665 94.3071 18.8977 96.4378 18.8977C98.5685 18.8977 100.415 19.3665 101.978 20.304C103.54 21.2415 104.747 22.5578 105.6 24.2528C106.461 25.9479 106.892 27.9223 106.892 30.1761C106.892 32.4299 106.461 34.3996 105.6 36.0852C104.747 37.7708 103.54 39.0824 101.978 40.0199C100.415 40.9574 98.5685 41.4261 96.4378 41.4261ZM96.4662 37.3068C97.6215 37.3068 98.5874 36.9896 99.3639 36.3551C100.14 35.7112 100.718 34.8494 101.097 33.7699C101.485 32.6903 101.679 31.4877 101.679 30.1619C101.679 28.8267 101.485 27.6193 101.097 26.5398C100.718 25.4508 100.14 24.5843 99.3639 23.9403C98.5874 23.2964 97.6215 22.9744 96.4662 22.9744C95.2825 22.9744 94.2976 23.2964 93.5116 23.9403C92.7351 24.5843 92.1527 25.4508 91.7645 26.5398C91.3857 27.6193 91.1963 28.8267 91.1963 30.1619C91.1963 31.4877 91.3857 32.6903 91.7645 33.7699C92.1527 34.8494 92.7351 35.7112 93.5116 36.3551C94.2976 36.9896 95.2825 37.3068 96.4662 37.3068ZM116.399 11.9091V41H111.257V11.9091H116.399ZM129.783 41.3835C128.069 41.3835 126.535 40.9432 125.181 40.0625C123.827 39.1818 122.756 37.9034 121.97 36.2273C121.184 34.5511 120.791 32.5152 120.791 30.1193C120.791 27.6951 121.189 25.6496 121.985 23.983C122.79 22.3068 123.874 21.0426 125.237 20.1903C126.601 19.3286 128.121 18.8977 129.797 18.8977C131.076 18.8977 132.127 19.1155 132.951 19.5511C133.774 19.9773 134.428 20.4934 134.911 21.0994C135.394 21.696 135.768 22.2595 136.033 22.7898H136.246V11.9091H141.402V41H136.345V37.5625H136.033C135.768 38.0928 135.384 38.6562 134.882 39.2528C134.38 39.84 133.718 40.3419 132.894 40.7585C132.07 41.1752 131.033 41.3835 129.783 41.3835ZM131.218 37.1648C132.307 37.1648 133.235 36.8712 134.002 36.2841C134.769 35.6875 135.351 34.8589 135.749 33.7983C136.147 32.7377 136.345 31.5019 136.345 30.0909C136.345 28.6799 136.147 27.4536 135.749 26.4119C135.361 25.3703 134.783 24.5606 134.016 23.983C133.258 23.4053 132.326 23.1165 131.218 23.1165C130.072 23.1165 129.115 23.4148 128.348 24.0114C127.581 24.608 127.004 25.4318 126.615 26.483C126.227 27.5341 126.033 28.7367 126.033 30.0909C126.033 31.4545 126.227 32.6714 126.615 33.7415C127.013 34.8021 127.595 35.6402 128.362 36.2557C129.139 36.8617 130.091 37.1648 131.218 37.1648ZM151.001 11.9091L158.572 34.8068H158.87L166.427 11.9091H172.223L161.967 41H155.461L145.22 11.9091H151.001ZM179.84 41.4403C178.457 41.4403 177.212 41.1941 176.104 40.7017C175.005 40.1998 174.134 39.4612 173.49 38.4858C172.856 37.5104 172.539 36.3078 172.539 34.8778C172.539 33.6468 172.766 32.6288 173.22 31.8239C173.675 31.0189 174.295 30.375 175.081 29.892C175.867 29.4091 176.753 29.0445 177.737 28.7983C178.732 28.5426 179.759 28.358 180.82 28.2443C182.098 28.1117 183.135 27.9934 183.931 27.8892C184.726 27.7756 185.304 27.6051 185.664 27.3778C186.033 27.1411 186.218 26.7765 186.218 26.2841V26.1989C186.218 25.1288 185.9 24.3002 185.266 23.7131C184.631 23.1259 183.718 22.8324 182.524 22.8324C181.265 22.8324 180.266 23.107 179.527 23.6562C178.798 24.2055 178.306 24.8542 178.05 25.6023L173.249 24.9205C173.628 23.5947 174.253 22.4867 175.124 21.5966C175.995 20.697 177.06 20.0246 178.32 19.5795C179.579 19.125 180.971 18.8977 182.496 18.8977C183.547 18.8977 184.594 19.0208 185.635 19.267C186.677 19.5133 187.629 19.9205 188.49 20.4886C189.352 21.0473 190.043 21.8097 190.564 22.7756C191.095 23.7415 191.36 24.9489 191.36 26.3977V41H186.416V38.0028H186.246C185.934 38.6089 185.493 39.1771 184.925 39.7074C184.366 40.2282 183.661 40.6496 182.809 40.9716C181.966 41.2841 180.976 41.4403 179.84 41.4403ZM181.175 37.6619C182.207 37.6619 183.102 37.4583 183.86 37.0511C184.617 36.6345 185.2 36.0852 185.607 35.4034C186.023 34.7216 186.232 33.9782 186.232 33.1733V30.6023C186.071 30.7348 185.796 30.858 185.408 30.9716C185.029 31.0852 184.603 31.1847 184.13 31.2699C183.656 31.3551 183.187 31.4309 182.723 31.4972C182.259 31.5634 181.857 31.6203 181.516 31.6676C180.749 31.7718 180.062 31.9422 179.456 32.179C178.85 32.4157 178.372 32.7472 178.022 33.1733C177.671 33.59 177.496 34.1297 177.496 34.7926C177.496 35.7396 177.842 36.4545 178.533 36.9375C179.224 37.4205 180.105 37.6619 181.175 37.6619ZM201.672 11.9091V41H196.53V11.9091H201.672ZM216.619 41.4261C214.431 41.4261 212.542 40.9716 210.951 40.0625C209.37 39.1439 208.153 37.8466 207.301 36.1705C206.448 34.4848 206.022 32.5009 206.022 30.2188C206.022 27.9744 206.448 26.0047 207.301 24.3097C208.162 22.6051 209.365 21.2794 210.909 20.3324C212.452 19.3759 214.266 18.8977 216.349 18.8977C217.694 18.8977 218.963 19.1155 220.156 19.5511C221.358 19.9773 222.419 20.6402 223.338 21.5398C224.266 22.4394 224.995 23.5852 225.525 24.9773C226.055 26.3598 226.321 28.0076 226.321 29.9205V31.4972H208.437V28.0312H221.392C221.382 27.0464 221.169 26.1705 220.752 25.4034C220.336 24.6269 219.753 24.0161 219.005 23.571C218.267 23.1259 217.405 22.9034 216.42 22.9034C215.369 22.9034 214.446 23.1591 213.65 23.6705C212.855 24.1723 212.234 24.8352 211.789 25.6591C211.354 26.4735 211.131 27.3684 211.122 28.3438V31.3693C211.122 32.6383 211.354 33.7273 211.818 34.6364C212.282 35.536 212.93 36.2273 213.764 36.7102C214.597 37.1837 215.572 37.4205 216.69 37.4205C217.438 37.4205 218.115 37.3163 218.721 37.108C219.327 36.8902 219.853 36.5729 220.298 36.1562C220.743 35.7396 221.079 35.2235 221.306 34.608L226.108 35.1477C225.804 36.4167 225.227 37.5246 224.375 38.4716C223.532 39.4091 222.452 40.1383 221.136 40.6591C219.82 41.1705 218.314 41.4261 216.619 41.4261Z" fill="#E0E1DD"/>
</g>
<defs>
<filter id="filter0_dddddddd_28_13784" x="52.2141" y="11.5115" width="178.106" height="37.929" filterUnits="userSpaceOnUse" color-interpolation-filters="sRGB">
<feFlood flood-opacity="0" result="BackgroundImageFix"/>
<feColorMatrix in="SourceAlpha" type="matrix" values="0 0 0 0 0 0 0 0 0 0 0 0 0 0 0 0 0 0 127 0" result="hardAlpha"/>
<feOffset dy="4"/>
<feGaussianBlur stdDeviation="2"/>
<feComposite in2="hardAlpha" operator="out"/>
<feColorMatrix type="matrix" values="0 0 0 0 0 0 0 0 0 0 0 0 0 0 0 0 0 0 0.25 0"/>
<feBlend mode="normal" in2="BackgroundImageFix" result="effect1_dropShadow_28_13784"/>
<feColorMatrix in="SourceAlpha" type="matrix" values="0 0 0 0 0 0 0 0 0 0 0 0 0 0 0 0 0 0 127 0" result="hardAlpha"/>
<feOffset dy="4"/>
<feGaussianBlur stdDeviation="2"/>
<feComposite in2="hardAlpha" operator="out"/>
<feColorMatrix type="matrix" values="0 0 0 0 0 0 0 0 0 0 0 0 0 0 0 0 0 0 0.25 0"/>
<feBlend mode="normal" in2="effect1_dropShadow_28_13784" result="effect2_dropShadow_28_13784"/>
<feColorMatrix in="SourceAlpha" type="matrix" values="0 0 0 0 0 0 0 0 0 0 0 0 0 0 0 0 0 0 127 0" result="hardAlpha"/>
<feOffset dy="4"/>
<feGaussianBlur stdDeviation="2"/>
<feComposite in2="hardAlpha" operator="out"/>
<feColorMatrix type="matrix" values="0 0 0 0 0 0 0 0 0 0 0 0 0 0 0 0 0 0 0.25 0"/>
<feBlend mode="normal" in2="effect2_dropShadow_28_13784" result="effect3_dropShadow_28_13784"/>
<feColorMatrix in="SourceAlpha" type="matrix" values="0 0 0 0 0 0 0 0 0 0 0 0 0 0 0 0 0 0 127 0" result="hardAlpha"/>
<feOffset dy="4"/>
<feGaussianBlur stdDeviation="2"/>
<feComposite in2="hardAlpha" operator="out"/>
<feColorMatrix type="matrix" values="0 0 0 0 0 0 0 0 0 0 0 0 0 0 0 0 0 0 0.25 0"/>
<feBlend mode="normal" in2="effect3_dropShadow_28_13784" result="effect4_dropShadow_28_13784"/>
<feColorMatrix in="SourceAlpha" type="matrix" values="0 0 0 0 0 0 0 0 0 0 0 0 0 0 0 0 0 0 127 0" result="hardAlpha"/>
<feOffset dy="4"/>
<feGaussianBlur stdDeviation="2"/>
<feComposite in2="hardAlpha" operator="out"/>
<feColorMatrix type="matrix" values="0 0 0 0 0 0 0 0 0 0 0 0 0 0 0 0 0 0 0.25 0"/>
<feBlend mode="normal" in2="effect4_dropShadow_28_13784" result="effect5_dropShadow_28_13784"/>
<feColorMatrix in="SourceAlpha" type="matrix" values="0 0 0 0 0 0 0 0 0 0 0 0 0 0 0 0 0 0 127 0" result="hardAlpha"/>
<feOffset dy="4"/>
<feGaussianBlur stdDeviation="2"/>
<feComposite in2="hardAlpha" operator="out"/>
<feColorMatrix type="matrix" values="0 0 0 0 0 0 0 0 0 0 0 0 0 0 0 0 0 0 0.25 0"/>
<feBlend mode="normal" in2="effect5_dropShadow_28_13784" result="effect6_dropShadow_28_13784"/>
<feColorMatrix in="SourceAlpha" type="matrix" values="0 0 0 0 0 0 0 0 0 0 0 0 0 0 0 0 0 0 127 0" result="hardAlpha"/>
<feOffset dy="4"/>
<feGaussianBlur stdDeviation="2"/>
<feComposite in2="hardAlpha" operator="out"/>
<feColorMatrix type="matrix" values="0 0 0 0 0 0 0 0 0 0 0 0 0 0 0 0 0 0 0.25 0"/>
<feBlend mode="normal" in2="effect6_dropShadow_28_13784" result="effect7_dropShadow_28_13784"/>
<feColorMatrix in="SourceAlpha" type="matrix" values="0 0 0 0 0 0 0 0 0 0 0 0 0 0 0 0 0 0 127 0" result="hardAlpha"/>
<feOffset dy="4"/>
<feGaussianBlur stdDeviation="2"/>
<feComposite in2="hardAlpha" operator="out"/>
<feColorMatrix type="matrix" values="0 0 0 0 0 0 0 0 0 0 0 0 0 0 0 0 0 0 0.25 0"/>
<feBlend mode="normal" in2="effect7_dropShadow_28_13784" result="effect8_dropShadow_28_13784"/>
<feBlend mode="normal" in="SourceGraphic" in2="effect8_dropShadow_28_13784" result="shape"/>
</filter>
</defs>
</svg>
