<svg width="30" height="44" viewBox="0 0 30 44" fill="none" xmlns="http://www.w3.org/2000/svg">
<path d="M8.75 14.1875H5.625C4.3818 14.1875 3.18951 14.6814 2.31044 15.5604C1.43136 16.4395 0.9375 17.6318 0.9375 18.875V37.625C0.9375 38.8682 1.43136 40.0605 2.31044 40.9396C3.18951 41.8186 4.3818 42.3125 5.625 42.3125H24.375C25.6182 42.3125 26.8105 41.8186 27.6896 40.9396C28.5686 40.0605 29.0625 38.8682 29.0625 37.625V18.875C29.0625 17.6318 28.5686 16.4395 27.6896 15.5604C26.8105 14.6814 25.6182 14.1875 24.375 14.1875H21.25M21.25 7.9375L15 1.6875M15 1.6875L8.75 7.9375M15 1.6875V28.25" stroke="#0D1B2A" stroke-width="1.5" stroke-linecap="round" stroke-linejoin="round"/>
</svg>
