<svg width="275" height="58" viewBox="0 0 275 58" fill="none" xmlns="http://www.w3.org/2000/svg">
<rect width="275" height="58" rx="10" fill="#778DA9"/>
<g filter="url(#filter0_dddddddd_28_13790)">
<path d="M15.0881 9.90909H21.5369L30.1733 30.9886H30.5142L39.1506 9.90909H45.5994V39H40.5426V19.0142H40.2727L32.233 38.9148H28.4545L20.4148 18.9716H20.1449V39H15.0881V9.90909ZM54.3068 47.1818C53.6061 47.1818 52.9574 47.125 52.3608 47.0114C51.7737 46.9072 51.3049 46.7841 50.9545 46.642L52.1477 42.6364C52.8958 42.8542 53.5634 42.9583 54.1506 42.9489C54.7377 42.9394 55.2538 42.7547 55.6989 42.3949C56.1534 42.0445 56.5369 41.4574 56.8494 40.6335L57.2898 39.4545L49.3778 17.1818H54.8324L59.8608 33.6591H60.0881L65.1307 17.1818H70.5994L61.8636 41.642C61.4564 42.7973 60.9167 43.7869 60.2443 44.6108C59.572 45.4441 58.7481 46.0786 57.7727 46.5142C56.8068 46.9593 55.6515 47.1818 54.3068 47.1818ZM91.402 22.9489L86.7145 23.4602C86.5819 22.9867 86.3499 22.5417 86.0185 22.125C85.6965 21.7083 85.2609 21.3722 84.7116 21.1165C84.1624 20.8608 83.4901 20.733 82.6946 20.733C81.6245 20.733 80.7249 20.965 79.9957 21.429C79.276 21.893 78.9209 22.4943 78.9304 23.233C78.9209 23.8674 79.1529 24.3835 79.6264 24.7812C80.1094 25.179 80.9048 25.5057 82.0128 25.7614L85.7344 26.5568C87.7988 27.0019 89.3329 27.7074 90.3366 28.6733C91.3499 29.6392 91.8613 30.9034 91.8707 32.4659C91.8613 33.839 91.4588 35.0511 90.6634 36.1023C89.8774 37.1439 88.7836 37.9583 87.3821 38.5455C85.9806 39.1326 84.3707 39.4261 82.5526 39.4261C79.8821 39.4261 77.7325 38.8674 76.1037 37.75C74.4749 36.6231 73.5043 35.0559 73.1918 33.0483L78.206 32.5653C78.4332 33.5502 78.9162 34.2936 79.6548 34.7955C80.3935 35.2973 81.3546 35.5483 82.5384 35.5483C83.7599 35.5483 84.7401 35.2973 85.4787 34.7955C86.2268 34.2936 86.6009 33.6733 86.6009 32.9347C86.6009 32.3097 86.3594 31.7936 85.8764 31.3864C85.4029 30.9792 84.6643 30.6667 83.6605 30.4489L79.9389 29.6676C77.8461 29.232 76.2978 28.4981 75.294 27.4659C74.2902 26.4242 73.7931 25.108 73.8026 23.517C73.7931 22.1723 74.1577 21.0076 74.8963 20.0227C75.6444 19.0284 76.6813 18.2614 78.0071 17.7216C79.3423 17.1723 80.8812 16.8977 82.6236 16.8977C85.1804 16.8977 87.1927 17.4422 88.6605 18.5312C90.1378 19.6203 91.0516 21.0928 91.402 22.9489ZM107.006 17.1818V21.1591H94.4631V17.1818H107.006ZM97.5597 11.9545H102.702V32.4375C102.702 33.1288 102.806 33.6591 103.014 34.0284C103.232 34.3883 103.516 34.6345 103.866 34.767C104.217 34.8996 104.605 34.9659 105.031 34.9659C105.353 34.9659 105.647 34.9422 105.912 34.8949C106.187 34.8475 106.395 34.8049 106.537 34.767L107.403 38.7869C107.129 38.8816 106.736 38.9858 106.224 39.0994C105.723 39.2131 105.107 39.2794 104.378 39.2983C103.09 39.3362 101.93 39.142 100.898 38.7159C99.8655 38.2803 99.0464 37.608 98.4403 36.6989C97.8438 35.7898 97.5502 34.6534 97.5597 33.2898V11.9545ZM135.908 9.90909V39H131.221L117.513 19.1847H117.272V39H112.002V9.90909H116.718L130.411 29.7386H130.667V9.90909H135.908ZM155.33 29.8239V17.1818H160.472V39H155.486V35.1222H155.259C154.766 36.3437 153.956 37.3428 152.83 38.1193C151.712 38.8958 150.334 39.2841 148.696 39.2841C147.266 39.2841 146.002 38.9669 144.903 38.3324C143.814 37.6884 142.962 36.7557 142.347 35.5341C141.731 34.303 141.423 32.8163 141.423 31.0739V17.1818H146.565V30.2784C146.565 31.661 146.944 32.7595 147.702 33.5739C148.459 34.3883 149.454 34.7955 150.685 34.7955C151.442 34.7955 152.176 34.6108 152.886 34.2415C153.597 33.8722 154.179 33.3229 154.634 32.5938C155.098 31.8551 155.33 30.9318 155.33 29.8239ZM165.759 39V17.1818H170.674V20.8892H170.93C171.384 19.6392 172.137 18.6638 173.188 17.9631C174.239 17.2528 175.494 16.8977 176.952 16.8977C178.43 16.8977 179.675 17.2576 180.688 17.9773C181.711 18.6875 182.431 19.6581 182.847 20.8892H183.075C183.558 19.6771 184.372 18.7112 185.518 17.9915C186.673 17.2623 188.041 16.8977 189.623 16.8977C191.63 16.8977 193.269 17.5322 194.538 18.8011C195.807 20.0701 196.441 21.9214 196.441 24.3551V39H191.285V25.1506C191.285 23.7964 190.925 22.8068 190.205 22.1818C189.486 21.5473 188.605 21.2301 187.563 21.2301C186.323 21.2301 185.352 21.6184 184.651 22.3949C183.96 23.1619 183.614 24.161 183.614 25.392V39H178.572V24.9375C178.572 23.8106 178.231 22.911 177.549 22.2386C176.877 21.5663 175.996 21.2301 174.907 21.2301C174.168 21.2301 173.496 21.4195 172.89 21.7983C172.284 22.1676 171.801 22.6932 171.441 23.375C171.081 24.0473 170.901 24.8333 170.901 25.733V39H165.759ZM201.885 39V9.90909H207.027V20.7898H207.24C207.505 20.2595 207.879 19.696 208.362 19.0994C208.845 18.4934 209.499 17.9773 210.322 17.5511C211.146 17.1155 212.197 16.8977 213.476 16.8977C215.161 16.8977 216.681 17.3286 218.036 18.1903C219.399 19.0426 220.479 20.3068 221.274 21.983C222.079 23.6496 222.482 25.6951 222.482 28.1193C222.482 30.5152 222.089 32.5511 221.303 34.2273C220.517 35.9034 219.446 37.1818 218.092 38.0625C216.738 38.9432 215.204 39.3835 213.49 39.3835C212.24 39.3835 211.203 39.1752 210.379 38.7585C209.555 38.3419 208.893 37.84 208.391 37.2528C207.898 36.6562 207.515 36.0928 207.24 35.5625H206.942V39H201.885ZM206.928 28.0909C206.928 29.5019 207.126 30.7377 207.524 31.7983C207.931 32.8589 208.514 33.6875 209.271 34.2841C210.038 34.8712 210.966 35.1648 212.055 35.1648C213.192 35.1648 214.143 34.8617 214.911 34.2557C215.678 33.6402 216.255 32.8021 216.643 31.7415C217.041 30.6714 217.24 29.4545 217.24 28.0909C217.24 26.7367 217.046 25.5341 216.658 24.483C216.269 23.4318 215.692 22.608 214.925 22.0114C214.158 21.4148 213.201 21.1165 212.055 21.1165C210.957 21.1165 210.024 21.4053 209.257 21.983C208.49 22.5606 207.908 23.3703 207.51 24.4119C207.122 25.4536 206.928 26.6799 206.928 28.0909ZM236.512 39.4261C234.325 39.4261 232.435 38.9716 230.844 38.0625C229.263 37.1439 228.046 35.8466 227.194 34.1705C226.342 32.4848 225.915 30.5009 225.915 28.2188C225.915 25.9744 226.342 24.0047 227.194 22.3097C228.056 20.6051 229.258 19.2794 230.802 18.3324C232.345 17.3759 234.159 16.8977 236.242 16.8977C237.587 16.8977 238.856 17.1155 240.049 17.5511C241.252 17.9773 242.312 18.6402 243.231 19.5398C244.159 20.4394 244.888 21.5852 245.418 22.9773C245.949 24.3598 246.214 26.0076 246.214 27.9205V29.4972H228.33V26.0312H241.285C241.275 25.0464 241.062 24.1705 240.646 23.4034C240.229 22.6269 239.647 22.0161 238.898 21.571C238.16 21.1259 237.298 20.9034 236.313 20.9034C235.262 20.9034 234.339 21.1591 233.543 21.6705C232.748 22.1723 232.128 22.8352 231.683 23.6591C231.247 24.4735 231.024 25.3684 231.015 26.3438V29.3693C231.015 30.6383 231.247 31.7273 231.711 32.6364C232.175 33.536 232.824 34.2273 233.657 34.7102C234.49 35.1837 235.466 35.4205 236.583 35.4205C237.331 35.4205 238.008 35.3163 238.614 35.108C239.22 34.8902 239.746 34.5729 240.191 34.1562C240.636 33.7396 240.972 33.2235 241.2 32.608L246.001 33.1477C245.698 34.4167 245.12 35.5246 244.268 36.4716C243.425 37.4091 242.345 38.1383 241.029 38.6591C239.713 39.1705 238.207 39.4261 236.512 39.4261ZM250.564 39V17.1818H255.55V20.8182H255.777C256.175 19.5587 256.857 18.5881 257.822 17.9062C258.798 17.215 259.911 16.8693 261.161 16.8693C261.445 16.8693 261.762 16.8835 262.112 16.9119C262.472 16.9309 262.77 16.964 263.007 17.0114V21.7415C262.789 21.6657 262.444 21.5994 261.97 21.5426C261.506 21.4763 261.056 21.4432 260.621 21.4432C259.683 21.4432 258.84 21.6468 258.092 22.054C257.354 22.4517 256.771 23.0057 256.345 23.7159C255.919 24.4261 255.706 25.2453 255.706 26.1733V39H250.564Z" fill="#E0E1DD"/>
</g>
<defs>
<filter id="filter0_dddddddd_28_13790" x="11.0881" y="9.90918" width="255.919" height="45.2727" filterUnits="userSpaceOnUse" color-interpolation-filters="sRGB">
<feFlood flood-opacity="0" result="BackgroundImageFix"/>
<feColorMatrix in="SourceAlpha" type="matrix" values="0 0 0 0 0 0 0 0 0 0 0 0 0 0 0 0 0 0 127 0" result="hardAlpha"/>
<feOffset dy="4"/>
<feGaussianBlur stdDeviation="2"/>
<feComposite in2="hardAlpha" operator="out"/>
<feColorMatrix type="matrix" values="0 0 0 0 0 0 0 0 0 0 0 0 0 0 0 0 0 0 0.25 0"/>
<feBlend mode="normal" in2="BackgroundImageFix" result="effect1_dropShadow_28_13790"/>
<feColorMatrix in="SourceAlpha" type="matrix" values="0 0 0 0 0 0 0 0 0 0 0 0 0 0 0 0 0 0 127 0" result="hardAlpha"/>
<feOffset dy="4"/>
<feGaussianBlur stdDeviation="2"/>
<feComposite in2="hardAlpha" operator="out"/>
<feColorMatrix type="matrix" values="0 0 0 0 0 0 0 0 0 0 0 0 0 0 0 0 0 0 0.25 0"/>
<feBlend mode="normal" in2="effect1_dropShadow_28_13790" result="effect2_dropShadow_28_13790"/>
<feColorMatrix in="SourceAlpha" type="matrix" values="0 0 0 0 0 0 0 0 0 0 0 0 0 0 0 0 0 0 127 0" result="hardAlpha"/>
<feOffset dy="4"/>
<feGaussianBlur stdDeviation="2"/>
<feComposite in2="hardAlpha" operator="out"/>
<feColorMatrix type="matrix" values="0 0 0 0 0 0 0 0 0 0 0 0 0 0 0 0 0 0 0.25 0"/>
<feBlend mode="normal" in2="effect2_dropShadow_28_13790" result="effect3_dropShadow_28_13790"/>
<feColorMatrix in="SourceAlpha" type="matrix" values="0 0 0 0 0 0 0 0 0 0 0 0 0 0 0 0 0 0 127 0" result="hardAlpha"/>
<feOffset dy="4"/>
<feGaussianBlur stdDeviation="2"/>
<feComposite in2="hardAlpha" operator="out"/>
<feColorMatrix type="matrix" values="0 0 0 0 0 0 0 0 0 0 0 0 0 0 0 0 0 0 0.25 0"/>
<feBlend mode="normal" in2="effect3_dropShadow_28_13790" result="effect4_dropShadow_28_13790"/>
<feColorMatrix in="SourceAlpha" type="matrix" values="0 0 0 0 0 0 0 0 0 0 0 0 0 0 0 0 0 0 127 0" result="hardAlpha"/>
<feOffset dy="4"/>
<feGaussianBlur stdDeviation="2"/>
<feComposite in2="hardAlpha" operator="out"/>
<feColorMatrix type="matrix" values="0 0 0 0 0 0 0 0 0 0 0 0 0 0 0 0 0 0 0.25 0"/>
<feBlend mode="normal" in2="effect4_dropShadow_28_13790" result="effect5_dropShadow_28_13790"/>
<feColorMatrix in="SourceAlpha" type="matrix" values="0 0 0 0 0 0 0 0 0 0 0 0 0 0 0 0 0 0 127 0" result="hardAlpha"/>
<feOffset dy="4"/>
<feGaussianBlur stdDeviation="2"/>
<feComposite in2="hardAlpha" operator="out"/>
<feColorMatrix type="matrix" values="0 0 0 0 0 0 0 0 0 0 0 0 0 0 0 0 0 0 0.25 0"/>
<feBlend mode="normal" in2="effect5_dropShadow_28_13790" result="effect6_dropShadow_28_13790"/>
<feColorMatrix in="SourceAlpha" type="matrix" values="0 0 0 0 0 0 0 0 0 0 0 0 0 0 0 0 0 0 127 0" result="hardAlpha"/>
<feOffset dy="4"/>
<feGaussianBlur stdDeviation="2"/>
<feComposite in2="hardAlpha" operator="out"/>
<feColorMatrix type="matrix" values="0 0 0 0 0 0 0 0 0 0 0 0 0 0 0 0 0 0 0.25 0"/>
<feBlend mode="normal" in2="effect6_dropShadow_28_13790" result="effect7_dropShadow_28_13790"/>
<feColorMatrix in="SourceAlpha" type="matrix" values="0 0 0 0 0 0 0 0 0 0 0 0 0 0 0 0 0 0 127 0" result="hardAlpha"/>
<feOffset dy="4"/>
<feGaussianBlur stdDeviation="2"/>
<feComposite in2="hardAlpha" operator="out"/>
<feColorMatrix type="matrix" values="0 0 0 0 0 0 0 0 0 0 0 0 0 0 0 0 0 0 0.25 0"/>
<feBlend mode="normal" in2="effect7_dropShadow_28_13790" result="effect8_dropShadow_28_13790"/>
<feBlend mode="normal" in="SourceGraphic" in2="effect8_dropShadow_28_13790" result="shape"/>
</filter>
</defs>
</svg>
